<svg width="128" height="128" viewBox="0 0 128 128" xmlns="http://www.w3.org/2000/svg">
  <defs>
    <linearGradient id="gradient" x1="0%" y1="0%" x2="100%" y2="100%">
      <stop offset="0%" style="stop-color:#FF6900;stop-opacity:1" />
      <stop offset="100%" style="stop-color:#FFA500;stop-opacity:1" />
    </linearGradient>
  </defs>
  
  <!-- 背景圆形 -->
  <circle cx="64" cy="64" r="56" fill="url(#gradient)" stroke="#fff" stroke-width="4"/>
  
  <!-- 大众点评图标 - 餐具 -->
  <g transform="translate(32, 32)">
    <!-- 叉子 -->
    <path d="M20 8 L20 56 L24 56 L24 8 M16 8 L16 24 L20 24 M24 8 L24 24 L28 24" 
          stroke="#fff" stroke-width="3" fill="none" stroke-linecap="round"/>
    
    <!-- 刀 -->
    <path d="M36 8 L36 56 L40 56 L40 8 M36 8 L44 16 L36 24" 
          stroke="#fff" stroke-width="3" fill="none" stroke-linecap="round"/>
    
    <!-- 勺子 -->
    <circle cx="54" cy="16" r="6" fill="#fff"/>
    <path d="M54 22 L54 56 L58 56 L58 22" 
          stroke="#fff" stroke-width="3" fill="none" stroke-linecap="round"/>
  </g>
  
  <!-- 数据连接点 -->
  <circle cx="32" cy="96" r="3" fill="#fff" opacity="0.8"/>
  <circle cx="64" cy="96" r="3" fill="#fff" opacity="0.8"/>
  <circle cx="96" cy="96" r="3" fill="#fff" opacity="0.8"/>
  
  <!-- 连接线 -->
  <path d="M32 96 L64 96 L96 96" stroke="#fff" stroke-width="2" opacity="0.6"/>
</svg> 